# xmcd
#
# Track frame offsets: 
#        150
#        15899
#        27478
#        38557
#        56363
#        76033
#        87281
#        102118
#
# Disc length: 1485 seconds
#
# Revision: 0
# Processed by: cddbd v1.5.2PL0 Copyright (c) Steve Scherf et al.
# Submitted via: ExactAudioCopy v0.99pb4
#
DISCID=4705cb08
DTITLE=Willie Nelson - Yours Always
DYEAR=1990
DGENRE=Country
TTITLE0=Always On My Mind
TTITLE1=I Never Go Around Mirrors
TTITLE2=Why Are You Pickin' On Me
TTITLE3=Help Me Make It Through the Night
TTITLE4=Angel Flying Too Close to the Ground
TTITLE5=Mona Lisa
TTITLE6=I'm Not Trying to Forget You
TTITLE7=If You've Got the Money I've Got the Time
EXTD=
EXTT0=
EXTT1=
EXTT2=
EXTT3=
EXTT4=
EXTT5=
EXTT6=
EXTT7=
PLAYORDER=
